<svg width="80" height="80" viewBox="0 0 80 80" fill="none" xmlns="http://www.w3.org/2000/svg">
<g clip-path="url(#clip0_183_951)">
<path fill-rule="evenodd" clip-rule="evenodd" d="M16.5625 9.17236C12.6953 9.17236 9.53125 12.3364 9.53125 16.2036V18.5474C9.53125 22.4146 12.6953 25.5786 16.5625 25.5786C20.4297 25.5786 23.5938 22.4146 23.5938 18.5474V16.2036C23.5938 12.3364 20.4297 9.17236 16.5625 9.17236Z" fill="white" stroke="white" stroke-miterlimit="22.9256"/>
<path fill-rule="evenodd" clip-rule="evenodd" d="M63.4375 9.17236C67.3047 9.17236 70.4688 12.3364 70.4688 16.2036V18.5474C70.4688 22.4146 67.3047 25.5786 63.4375 25.5786C59.5703 25.5786 56.4062 22.4146 56.4062 18.5474V16.2036C56.4062 12.3364 59.5703 9.17236 63.4375 9.17236Z" fill="white" stroke="white" stroke-miterlimit="22.9256"/>
<path fill-rule="evenodd" clip-rule="evenodd" d="M39.9271 1.17188C44.6537 1.17188 48.5208 5.03906 48.5208 9.76562V12.6302C48.5208 17.3567 44.6537 21.2239 39.9271 21.2239C35.2005 21.2239 31.3333 17.3567 31.3333 12.6302V9.76562C31.3333 5.03906 35.2004 1.17188 39.9271 1.17188Z" fill="white" stroke="white" stroke-miterlimit="22.9256"/>
<path d="M68.2967 66.5845C74.8266 59.6375 78.8281 50.2866 78.8281 40H17.7344M15.3906 40H1.17188C1.17188 61.4442 18.5558 78.8281 40 78.8281C50.2866 78.8281 59.6372 74.8264 66.5845 68.2969" stroke="white" stroke-miterlimit="22.9256"/>
<path d="M38.6714 40C38.6714 43.1055 36.9524 44.6875 34.9214 44.6875H31.6988C29.7656 44.6875 28.1831 46.2698 28.1831 48.2031V59.4963C28.1831 62.7188 25.5464 65.3556 22.3238 65.3556C19.1011 65.3556 16.4644 62.7189 16.4644 59.4963V52.7161C16.4644 50.7825 14.8822 49.2005 12.9488 49.2005H9.86533C7.93204 49.2005 6.3497 50.7828 6.3497 52.7161V59.3852" stroke="white" stroke-miterlimit="22.9256"/>
<path d="M59.1342 73.7937C59.0352 71.9473 57.4939 70.4686 55.6238 70.4686C53.6902 70.4686 52.1081 68.8866 52.1081 66.953C52.1081 65.0194 53.6902 63.4373 55.6238 63.4373H57.9089C59.8423 63.4373 61.4245 61.8552 61.4245 59.9217C61.4245 57.9883 59.8419 56.4061 57.9089 56.4061H54.6444C51.4223 56.4061 48.785 53.7694 48.785 50.5469C48.785 47.3242 51.4216 44.6875 54.6444 44.6875H63.5938C65.5273 44.6875 67.1094 43.1053 67.1094 41.1719V40" stroke="white" stroke-miterlimit="22.9256"/>
<path d="M72.3755 44.6875H74.7192M70.0316 49.375H72.3753" stroke="white" stroke-miterlimit="22.9256"/>
<path d="M35.3617 24.1379L36.3888 20.4238M44.6383 24.1379L43.6111 20.4238" stroke="white" stroke-miterlimit="22.9256"/>
<path fill-rule="evenodd" clip-rule="evenodd" d="M35.3617 24.1377L30.6902 25.573C28.3327 26.2972 27.1094 28.0933 27.1094 30.2518V40M52.8906 40V30.2518C52.8906 28.093 51.6673 26.2972 49.3098 25.573L44.6383 24.1377" fill="white"/>
<path d="M35.3617 24.1377L30.6902 25.573C28.3327 26.2972 27.1094 28.0933 27.1094 30.2518V40M52.8906 40V30.2518C52.8906 28.093 51.6673 26.2972 49.3098 25.573L44.6383 24.1377" stroke="white" stroke-miterlimit="22.9256"/>
<path d="M44.6383 24.1377C44.6383 26.6993 42.5616 28.776 40 28.776C37.4384 28.776 35.3617 26.6993 35.3617 24.1377" stroke="white" stroke-miterlimit="22.9256"/>
<path d="M48.5938 12.6304C48.5938 10.2671 46.6602 8.3335 44.2969 8.3335H35.7031C33.3398 8.3335 31.4062 10.2671 31.4062 12.6304" stroke="black" stroke-miterlimit="22.9256"/>
<path d="M59.6425 27.9622L60.4828 24.9233M67.2325 27.9622L66.3922 24.9233" stroke="white" stroke-miterlimit="22.9256"/>
<path fill-rule="evenodd" clip-rule="evenodd" d="M59.6425 27.9624L55.8203 29.1366C53.8916 29.7291 52.8906 31.1988 52.8906 32.9647M73.9844 40.0001V32.9649C73.9844 31.1987 72.9834 29.7294 71.0547 29.1368L67.2325 27.9626" fill="white"/>
<path d="M59.6425 27.9624L55.8203 29.1366C53.8916 29.7291 52.8906 31.1988 52.8906 32.9647M73.9844 40.0001V32.9649C73.9844 31.1987 72.9834 29.7294 71.0547 29.1368L67.2325 27.9626" stroke="white" stroke-miterlimit="22.9256"/>
<path d="M67.2325 27.9624C67.2325 30.0583 65.5335 31.7574 63.4375 31.7574C61.3416 31.7574 59.6425 30.0583 59.6425 27.9624" stroke="white" stroke-miterlimit="22.9256"/>
<path d="M70.4688 18.5474C70.4688 16.6138 68.8867 15.0317 66.9531 15.0317H59.9219C57.9883 15.0317 56.4062 16.6138 56.4062 18.5474" stroke="black" stroke-miterlimit="22.9256"/>
<path d="M20.3575 27.9622L19.5172 24.9233M12.7675 27.9622L13.6078 24.9233" stroke="white" stroke-miterlimit="22.9256"/>
<path fill-rule="evenodd" clip-rule="evenodd" d="M20.3575 27.9624L24.1797 29.1366C26.1084 29.7291 27.1094 31.1988 27.1094 32.9647M6.01562 40.0001V32.9649C6.01562 31.1987 7.01656 29.7294 8.94531 29.1368L12.7675 27.9626" fill="white"/>
<path d="M20.3575 27.9624L24.1797 29.1366C26.1084 29.7291 27.1094 31.1988 27.1094 32.9647M6.01562 40.0001V32.9649C6.01562 31.1987 7.01656 29.7294 8.94531 29.1368L12.7675 27.9626" stroke="white" stroke-miterlimit="22.9256"/>
<path d="M12.7675 27.9624C12.7675 30.0583 14.4665 31.7574 16.5625 31.7574C18.6584 31.7574 20.3575 30.0583 20.3575 27.9624" stroke="white" stroke-miterlimit="22.9256"/>
<path d="M9.53125 18.5474C9.53125 16.6138 11.1133 15.0317 13.0469 15.0317H20.0781C22.0117 15.0317 23.5938 16.6138 23.5938 18.5474" stroke="black" stroke-miterlimit="22.9256"/>
</g>
<defs>
<clipPath id="clip0_183_951">
<rect width="80" height="80" fill="white"/>
</clipPath>
</defs>
</svg>
