<svg width="167" height="168" viewBox="0 0 167 168" fill="none" xmlns="http://www.w3.org/2000/svg">
<mask id="mask0_183_100" style="mask-type:luminance" maskUnits="userSpaceOnUse" x="0" y="0" width="169" height="168">
<path d="M0.230469 1.52588e-05H168.23V168H0.230469V1.52588e-05Z" fill="white"/>
</mask>
<g mask="url(#mask0_183_100)">
<path d="M107.117 37.2422V25.2656C107.117 23.9603 107.636 22.7085 108.559 21.7855L121.684 8.66053C122.607 7.73751 123.859 7.21875 125.164 7.21875H146.708" stroke="white" stroke-miterlimit="10" stroke-linecap="round" stroke-linejoin="round"/>
<path d="M146.6 150.938H127.203L116.961 140.696V130.652" stroke="white" stroke-miterlimit="10" stroke-linecap="round" stroke-linejoin="round"/>
<path d="M107.117 130.545V142.734C107.117 144.039 107.636 145.292 108.559 146.215L121.684 159.34C122.607 160.263 123.859 160.781 125.164 160.781H146.6" stroke="white" stroke-miterlimit="10" stroke-linecap="round" stroke-linejoin="round"/>
<path d="M146.708 51.6797H121.484" stroke="white" stroke-miterlimit="10" stroke-linecap="round" stroke-linejoin="round"/>
<path d="M121.332 41.8359H145.998" stroke="white" stroke-miterlimit="10" stroke-linecap="round" stroke-linejoin="round"/>
<path d="M146.601 126.164H121.309" stroke="white" stroke-miterlimit="10" stroke-linecap="round" stroke-linejoin="round"/>
<path d="M121.414 116.32H145.998" stroke="white" stroke-miterlimit="10" stroke-linecap="round" stroke-linejoin="round"/>
<path d="M102.517 116.552L92.3125 102.986" stroke="white" stroke-miterlimit="10" stroke-linecap="round" stroke-linejoin="round"/>
<path d="M99.832 96.6074L110.923 111.351" stroke="white" stroke-miterlimit="10" stroke-linecap="round" stroke-linejoin="round"/>
<path d="M110.923 56.71L99.832 71.5842" stroke="white" stroke-miterlimit="10" stroke-linecap="round" stroke-linejoin="round"/>
<path d="M92.3086 65.208L102.518 51.5157" stroke="white" stroke-miterlimit="10" stroke-linecap="round" stroke-linejoin="round"/>
<path d="M102.359 46.7578C102.359 41.3214 106.767 36.9141 112.203 36.9141C117.64 36.9141 122.047 41.3214 122.047 46.7578C122.047 52.1942 117.64 56.6016 112.203 56.6016C106.767 56.6016 102.359 52.1942 102.359 46.7578Z" stroke="white" stroke-miterlimit="10" stroke-linecap="round" stroke-linejoin="round"/>
<path d="M102.359 121.242C102.359 115.806 106.767 111.398 112.203 111.398C117.64 111.398 122.047 115.806 122.047 121.242C122.047 126.679 117.64 131.086 112.203 131.086C106.767 131.086 102.359 126.679 102.359 121.242Z" stroke="white" stroke-miterlimit="10" stroke-linecap="round" stroke-linejoin="round"/>
<path d="M92.9678 26.9027L84.932 47.6838C84.4707 48.8778 83.3563 49.6962 82.0786 49.7726C64.1955 50.8423 50.0234 65.6841 50.0234 83.8359C50.0234 101.986 64.1922 116.826 82.0721 117.899C83.3531 117.976 84.4693 118.798 84.9287 119.996L99.611 158.271C99.8121 158.796 99.8794 159.364 99.797 159.92C99.3252 163.099 96.584 165.539 93.2736 165.539H89.7266M78.2422 165.539H75.0233C71.3804 165.539 68.4276 162.586 68.4276 158.944V151.84C68.4276 148.998 66.6069 146.475 63.9094 145.583C60.9073 144.588 58.0001 143.38 55.2075 141.976C52.6645 140.697 49.5903 141.186 47.5786 143.197L42.552 148.224C39.9759 150.8 35.7989 150.8 33.2231 148.224L20.085 135.089C17.5128 132.513 17.5128 128.336 20.085 125.76L25.1151 120.734C27.1265 118.722 27.6158 115.648 26.3361 113.105C24.9317 110.312 23.7242 107.405 22.7297 104.403C21.8375 101.706 19.3142 99.8845 16.4727 99.8845H9.36875C5.72623 99.8845 2.77344 96.9317 2.77344 93.2892V74.7108C2.77344 71.0683 5.72623 68.1155 9.36875 68.1155H16.4727C19.3142 68.1155 21.8375 66.2944 22.7297 63.5972C23.7242 60.5949 24.9317 57.6877 26.3361 54.8953C27.6158 52.3524 27.1265 49.2778 25.1151 47.2664L20.085 42.2395C17.5128 39.6638 17.5128 35.4867 20.085 32.911L33.2231 19.7728C35.7989 17.2003 39.9759 17.2003 42.552 19.7728L47.5786 24.803C49.5903 26.8141 52.6645 27.3033 55.2075 26.0236C58.0001 24.6192 60.9073 23.4117 63.9094 22.4175C66.6069 21.525 68.4276 19.0017 68.4276 16.1602V9.05627C68.4276 5.41375 71.3804 2.46095 75.0233 2.46095H93.2736C96.5827 2.46095 99.3232 4.8986 99.7964 8.07649C99.8797 8.63463 99.8108 9.20589 99.6071 9.73253L97.1123 16.1845" stroke="white" stroke-miterlimit="10" stroke-linecap="round" stroke-linejoin="round"/>
<path d="M53.75 122.294C62.0955 128.928 72.6589 132.89 84.1482 132.89C85.8357 132.89 87.5036 132.805 89.1468 132.638" stroke="white" stroke-miterlimit="10" stroke-linecap="round" stroke-linejoin="round"/>
<path d="M88.4009 35.2915C86.9995 35.1707 85.581 35.1091 84.1484 35.1091C57.147 35.1091 35.2578 56.9983 35.2578 83.9997C35.2578 95.364 39.1349 105.823 45.6387 114.125" stroke="white" stroke-miterlimit="10" stroke-linecap="round" stroke-linejoin="round"/>
<path d="M64.4608 84C64.4608 73.1269 73.2752 64.3125 84.1483 64.3125C95.0214 64.3125 103.836 73.1269 103.836 84C103.836 94.8731 95.0214 103.688 84.1483 103.688C73.2752 103.688 64.4608 94.8731 64.4608 84Z" stroke="white" stroke-miterlimit="10" stroke-linecap="round" stroke-linejoin="round"/>
<path d="M146 84C146 78.5636 150.407 74.1562 155.844 74.1562C161.28 74.1562 165.688 78.5636 165.688 84C165.688 89.4364 161.28 93.8438 155.844 93.8438C150.407 93.8438 146 89.4364 146 84Z" stroke="white" stroke-miterlimit="10" stroke-linecap="round" stroke-linejoin="round"/>
<path d="M146 46.7578C146 41.3214 150.407 36.9141 155.844 36.9141C161.28 36.9141 165.688 41.3214 165.688 46.7578C165.688 52.1942 161.28 56.6016 155.844 56.6016C150.407 56.6016 146 52.1942 146 46.7578Z" stroke="white" stroke-miterlimit="10" stroke-linecap="round" stroke-linejoin="round"/>
<path d="M146 12.3047C146 6.86831 150.407 2.46094 155.844 2.46094C161.28 2.46094 165.688 6.86831 165.688 12.3047C165.688 17.7411 161.28 22.1484 155.844 22.1484C150.407 22.1484 146 17.7411 146 12.3047Z" stroke="white" stroke-miterlimit="10" stroke-linecap="round" stroke-linejoin="round"/>
<path d="M146 121.242C146 115.806 150.407 111.398 155.844 111.398C161.28 111.398 165.688 115.806 165.688 121.242C165.688 126.679 161.28 131.086 155.844 131.086C150.407 131.086 146 126.679 146 121.242Z" stroke="white" stroke-miterlimit="10" stroke-linecap="round" stroke-linejoin="round"/>
<path d="M146 155.695C146 150.259 150.407 145.852 155.844 145.852C161.28 145.852 165.688 150.259 165.688 155.695C165.688 161.132 161.28 165.539 155.844 165.539C150.407 165.539 146 161.132 146 155.695Z" stroke="white" stroke-miterlimit="10" stroke-linecap="round" stroke-linejoin="round"/>
<path d="M102.359 46.7578C102.359 41.3214 106.767 36.9141 112.203 36.9141C117.64 36.9141 122.047 41.3214 122.047 46.7578C122.047 52.1942 117.64 56.6016 112.203 56.6016C106.767 56.6016 102.359 52.1942 102.359 46.7578Z" fill="white" stroke="white" stroke-miterlimit="10" stroke-linecap="round" stroke-linejoin="round"/>
<path d="M102.359 121.242C102.359 115.806 106.767 111.398 112.203 111.398C117.64 111.398 122.047 115.806 122.047 121.242C122.047 126.679 117.64 131.086 112.203 131.086C106.767 131.086 102.359 126.679 102.359 121.242Z" fill="white" stroke="white" stroke-miterlimit="10" stroke-linecap="round" stroke-linejoin="round"/>
<path d="M103.836 79.0781H119.914" stroke="white" stroke-miterlimit="10" stroke-linecap="round" stroke-linejoin="round"/>
<path d="M146 88.9219H103.836" stroke="white" stroke-miterlimit="10" stroke-linecap="round" stroke-linejoin="round"/>
<path d="M131.715 79.0781H145.999" stroke="white" stroke-miterlimit="10" stroke-linecap="round" stroke-linejoin="round"/>
<path d="M64.4608 84C64.4608 73.1269 73.2752 64.3125 84.1483 64.3125C95.0214 64.3125 103.836 73.1269 103.836 84C103.836 94.8731 95.0214 103.688 84.1483 103.688C73.2752 103.688 64.4608 94.8731 64.4608 84Z" fill="white" stroke="white" stroke-miterlimit="10" stroke-linecap="round" stroke-linejoin="round"/>
<path d="M146 84C146 78.5636 150.407 74.1562 155.844 74.1562C161.28 74.1562 165.688 78.5636 165.688 84C165.688 89.4364 161.28 93.8438 155.844 93.8438C150.407 93.8438 146 89.4364 146 84Z" fill="white" stroke="white" stroke-miterlimit="10" stroke-linecap="round" stroke-linejoin="round"/>
<path d="M146 46.7578C146 41.3214 150.407 36.9141 155.844 36.9141C161.28 36.9141 165.688 41.3214 165.688 46.7578C165.688 52.1942 161.28 56.6016 155.844 56.6016C150.407 56.6016 146 52.1942 146 46.7578Z" fill="white" stroke="white" stroke-miterlimit="10" stroke-linecap="round" stroke-linejoin="round"/>
<path d="M146 12.3047C146 6.86831 150.407 2.46094 155.844 2.46094C161.28 2.46094 165.688 6.86831 165.688 12.3047C165.688 17.7411 161.28 22.1484 155.844 22.1484C150.407 22.1484 146 17.7411 146 12.3047Z" fill="white" stroke="white" stroke-miterlimit="10" stroke-linecap="round" stroke-linejoin="round"/>
<path d="M146 121.242C146 115.806 150.407 111.398 155.844 111.398C161.28 111.398 165.688 115.806 165.688 121.242C165.688 126.679 161.28 131.086 155.844 131.086C150.407 131.086 146 126.679 146 121.242Z" fill="white" stroke="white" stroke-miterlimit="10" stroke-linecap="round" stroke-linejoin="round"/>
<path d="M146 155.695C146 150.259 150.407 145.852 155.844 145.852C161.28 145.852 165.688 150.259 165.688 155.695C165.688 161.132 161.28 165.539 155.844 165.539C150.407 165.539 146 161.132 146 155.695Z" fill="white" stroke="white" stroke-miterlimit="10" stroke-linecap="round" stroke-linejoin="round"/>
<path d="M151.208 20.9231H131.703L121.461 31.1649V40.7747" stroke="white" stroke-miterlimit="10" stroke-linecap="round" stroke-linejoin="round"/>
</g>
</svg>
